HIERARCHY
ROOT hip
{
	OFFSET 0.000000 0.000000 0.000000
	CHANNELS 6 Xposition Yposition Zposition Xrotation Zrotation Yrotation 
	JOINT abdomen
	{
		OFFSET 0.000000 3.422050 0.000000
		CHANNELS 3 Xrotation Zrotation Yrotation 
		JOINT chest
		{
			OFFSET 0.000000 8.486693 -0.684411
			CHANNELS 3 Xrotation Zrotation Yrotation 
			JOINT neck
			{
				OFFSET 0.000000 10.266162 -0.273764
				CHANNELS 3 Xrotation Zrotation Yrotation 
				JOINT head
				{
					OFFSET 0.000000 3.148285 0.000000
					CHANNELS 3 Xrotation Zrotation Yrotation 
					End Site
					{
						OFFSET 0.000000 3.148289 0.000000
					}
				}
			}
			JOINT lCollar
			{
				OFFSET 3.422053 6.707223 -0.821293
				CHANNELS 3 Yrotation Zrotation Xrotation 
				JOINT lShldr
				{
					OFFSET 3.285171 0.000000 0.000000
					CHANNELS 3 Zrotation Yrotation Xrotation 
					JOINT lForeArm
					{
						OFFSET 10.129278 0.000000 0.000000
						CHANNELS 3 Yrotation Zrotation Xrotation 
						JOINT lHand
						{
							OFFSET 8.486692 0.000000 0.000000
							CHANNELS 3 Zrotation Yrotation Xrotation 
							End Site
							{
								OFFSET 4.106464 0.000000 0.000000
							}
						}
					}
				}
			}
			JOINT rCollar
			{
				OFFSET -3.558935 6.707223 -0.821293
				CHANNELS 3 Yrotation Zrotation Xrotation 
				JOINT rShldr
				{
					OFFSET -3.148289 0.000000 0.000000
					CHANNELS 3 Zrotation Yrotation Xrotation 
					JOINT rForeArm
					{
						OFFSET -10.266159 0.000000 0.000000
						CHANNELS 3 Yrotation Zrotation Xrotation 
						JOINT rHand
						{
							OFFSET -8.349810 0.000000 0.000000
							CHANNELS 3 Zrotation Yrotation Xrotation 
							End Site
							{
								OFFSET -4.106464 0.000000 0.000000
							}
						}
					}
				}
			}
		}
	}
	JOINT lThigh
	{
		OFFSET 5.338403 -1.642589 1.368821
		CHANNELS 3 Xrotation Zrotation Yrotation 
		JOINT lShin
		{
			OFFSET -2.053232 -20.121670 0.000000
			CHANNELS 3 Xrotation Zrotation Yrotation 
			JOINT lFoot
			{
				OFFSET 0.000000 -19.300380 -1.231939
				CHANNELS 3 Xrotation Yrotation Zrotation 
				End Site
				{
					OFFSET 0.000000 -2.463878 4.653993
				}
			}
		}
	}
	JOINT rThigh
	{
		OFFSET -5.338403 -1.642589 1.368821
		CHANNELS 3 Xrotation Zrotation Yrotation 
		JOINT rShin
		{
			OFFSET 2.053232 -20.121670 0.000000
			CHANNELS 3 Xrotation Zrotation Yrotation 
			JOINT rFoot
			{
				OFFSET 0.000000 -19.300380 -1.231939
				CHANNELS 3 Xrotation Yrotation Zrotation 
				End Site
				{
					OFFSET 0.000000 -2.463878 4.653993
				}
			}
		}
	}
}
MOTION
Frames: 11
Frame Time: 0.033325
0.000000 43.528500 0.000000 0.000000 0.000000 0.000000 0.000000 0.000000 0.000000 0.000000 0.000000 0.000000 0.000000 0.000000 0.000000 0.000000 0.000000 0.000000 0.000000 0.000000 0.000000 0.000000 0.000000 0.000000 0.000000 0.000000 0.000000 0.000000 0.000000 0.000000 0.000000 0.000000 0.000000 0.000000 0.000000 0.000000 0.000000 0.000000 0.000000 0.000000 0.000000 0.000000 0.000000 0.000000 0.000000 0.000000 0.000000 0.000000 0.000000 0.000000 0.000000 0.000000 0.000000 0.000000 0.000000 0.000000 0.000000 0.000000 0.000000 0.000000 
19.869728 16.744160 26.784323 -89.996941 0.254758 -179.732864 -13.366611 0.066767 -0.136340 17.630299 1.198210 -0.435289 21.997025 0.000000 0.000000 -24.002691 0.000000 0.000000 5.505667 -23.422180 30.614462 47.325348 -63.940216 -40.025665 -69.149323 5.556256 -0.877071 38.375031 22.506039 -34.430382 -10.392774 19.890980 21.256670 -35.349636 79.081841 -28.890047 64.803253 -5.334745 -1.253993 -44.307777 -19.653606 -19.200930 -90.594666 48.861477 14.538195 98.291939 10.778056 -3.727466 49.940521 -1.651359 6.042873 -90.596947 -48.867210 -14.537455 98.292198 -10.777678 3.722491 49.940300 1.646722 -6.044572 
19.869728 16.744160 26.784323 -89.996933 0.254758 -179.732864 -12.977913 0.066828 -0.136275 18.295959 1.198215 -0.435203 21.608406 0.000000 0.000000 -24.002691 0.000000 0.000000 5.939280 -23.253544 30.023739 47.924515 -64.121933 -40.584644 -70.405968 5.642641 -0.745546 38.830742 23.055096 -33.809616 -10.793395 19.908270 20.693554 -35.349636 79.081825 -28.890047 66.082985 -5.410837 -1.126845 -44.670532 -20.087181 -18.483986 -90.594666 48.861477 14.538197 98.291939 10.778056 -3.727466 49.940517 -1.651359 6.042873 -90.596947 -48.867207 -14.537457 98.292198 -10.777677 3.722490 49.940300 1.646722 -6.044572 
19.869728 16.744160 26.784323 -89.996948 0.254758 -179.732864 -12.589139 0.066888 -0.136210 18.961973 1.198218 -0.435116 21.219706 0.000000 0.000000 -24.002693 0.000000 0.000000 6.374630 -23.088867 29.431822 48.531704 -64.301056 -41.151672 -71.665405 5.726292 -0.611869 39.295185 23.599985 -33.181023 -11.194173 19.929277 20.130075 -35.349640 79.081871 -28.890047 67.365654 -5.484230 -0.997747 -45.040337 -20.516769 -17.761534 -90.594666 48.861481 14.538199 98.291939 10.778056 -3.727467 49.940521 -1.651359 6.042874 -90.596947 -48.867214 -14.537458 98.292198 -10.777678 3.722492 49.940308 1.646721 -6.044573 
19.869728 16.744160 26.784323 -89.996941 0.254758 -179.732864 -12.200303 0.066948 -0.136144 19.628309 1.198221 -0.435029 20.830952 0.000000 0.000000 -24.002691 0.000000 0.000000 6.811642 -22.928211 28.838797 49.146984 -64.477554 -41.726814 -72.927383 5.807133 -0.476125 39.768433 24.140526 -32.544502 -11.595039 19.954004 19.566303 -35.349636 79.081841 -28.890047 68.650864 -5.554846 -0.866783 -45.417263 -20.942247 -17.033587 -90.594666 48.861477 14.538195 98.291939 10.778056 -3.727466 49.940521 -1.651359 6.042873 -90.596947 -48.867210 -14.537455 98.292198 -10.777678 3.722491 49.940300 1.646722 -6.044572 
19.869728 16.744160 26.784323 -89.996941 0.254758 -179.732864 -11.811418 0.067007 -0.136078 20.294918 1.198223 -0.434943 20.442142 0.000000 0.000000 -24.002691 0.000000 0.000000 7.250235 -22.771622 28.244732 49.770401 -64.651360 -42.310112 -74.191544 5.885090 -0.338404 40.250595 24.676529 -31.899975 -11.995932 19.982464 19.002314 -35.349636 79.081841 -28.890043 69.938354 -5.622622 -0.734044 -45.801262 -21.363443 -16.300114 -90.594666 48.861473 14.538191 98.291939 10.778056 -3.727466 49.940521 -1.651359 6.042873 -90.596947 -48.867210 -14.537455 98.292198 -10.777678 3.722491 49.940300 1.646722 -6.044572 
19.869728 16.744160 26.784323 -89.996948 0.254758 -179.732864 -11.422482 0.067066 -0.136011 20.961750 1.198223 -0.434856 20.053291 0.000000 0.000000 -24.002695 0.000000 0.000000 7.690327 -22.619143 27.649700 50.402004 -64.822449 -42.901623 -75.457619 5.960095 -0.198797 40.741745 25.207806 -31.247351 -12.396774 20.014641 18.438164 -35.349663 79.081871 -28.890072 71.227737 -5.687490 -0.599622 -46.192337 -21.780212 -15.561123 -90.594666 48.861481 14.538198 98.291939 10.778056 -3.727466 49.940525 -1.651360 6.042874 -90.596962 -48.867214 -14.537454 98.292198 -10.777678 3.722492 49.940300 1.646722 -6.044572 
19.869728 16.744160 26.784323 -89.996941 0.254758 -179.732864 -11.033515 0.067124 -0.135945 21.628756 1.198223 -0.434769 19.664396 0.000000 0.000000 -24.002691 0.000000 0.000000 8.131838 -22.470819 27.053782 51.041779 -64.990746 -43.501331 -76.725258 6.032081 -0.057401 41.241940 25.734156 -30.586540 -12.797502 20.050539 17.873924 -35.349636 79.081841 -28.890047 72.518745 -5.749394 -0.463615 -46.590488 -22.192402 -14.816615 -90.594666 48.861477 14.538197 98.291939 10.778056 -3.727466 49.940517 -1.651359 6.042873 -90.596947 -48.867210 -14.537455 98.292198 -10.777678 3.722491 49.940300 1.646722 -6.044572 
19.869728 16.744160 26.784323 -89.996941 0.254758 -179.732864 -10.644521 0.067182 -0.135877 22.295908 1.198222 -0.434682 19.275480 0.000000 0.000000 -24.002691 0.000000 0.000000 8.574689 -22.326702 26.457069 51.689781 -65.156166 -44.109287 -77.994194 6.100988 0.085686 41.751278 26.255396 -29.917469 -13.198051 20.090164 17.309673 -35.349636 79.081841 -28.890047 73.810982 -5.808275 -0.326121 -46.995712 -22.599863 -14.066597 -90.594650 48.861473 14.538197 98.291939 10.778056 -3.727466 49.940521 -1.651359 6.042873 -90.596931 -48.867203 -14.537457 98.292198 -10.777678 3.722491 49.940300 1.646722 -6.044572 
19.869728 16.744160 26.784323 -89.996941 0.254758 -179.732864 -10.255505 0.067240 -0.135810 22.963144 1.198219 -0.434595 18.886547 0.000000 0.000000 -24.002691 0.000000 0.000000 9.018790 -22.186823 25.859631 52.345974 -65.318657 -44.725464 -79.264046 6.166757 0.230360 42.269791 26.771318 -29.240065 -13.598341 20.133484 16.745464 -35.349636 79.081841 -28.890047 75.104172 -5.864085 -0.187243 -47.407993 -23.002459 -13.311089 -90.594666 48.861477 14.538197 98.291939 10.778056 -3.727466 49.940517 -1.651359 6.042873 -90.596947 -48.867207 -14.537452 98.292198 -10.777678 3.722491 49.940300 1.646722 -6.044572 
19.869728 16.744160 26.784323 -89.996941 0.254758 -179.732864 -9.866481 0.067297 -0.135742 23.630428 1.198216 -0.434509 18.497601 0.000000 0.000000 -24.002691 0.000000 0.000000 9.464059 -22.051218 25.261553 53.010418 -65.478188 -45.349911 -80.534538 6.229338 0.376519 42.797569 27.281744 -28.554268 -13.998320 20.180521 16.181383 -35.349636 79.081841 -28.890047 76.397919 -5.916773 -0.047085 -47.827282 -23.400017 -12.550096 -90.594666 48.861477 14.538195 98.291939 10.778056 -3.727466 49.940521 -1.651359 6.042874 -90.596947 -48.867210 -14.537455 98.292198 -10.777678 3.722491 49.940308 1.646721 -6.044573 
